<svg xmlns="http://www.w3.org/2000/svg" viewBox="0 0 180 180">
  <defs>
    <linearGradient id="g" x1="0" y1="0" x2="1" y2="1">
      <stop offset="0%" stop-color="#55c27a"/>
      <stop offset="55%" stop-color="#1f9d55"/>
      <stop offset="100%" stop-color="#0f6b37"/>
    </linearGradient>
  </defs>
  <rect width="180" height="180" rx="40" fill="url(#g)"/>
  <g transform="translate(90 90) scale(3.2) translate(-16 -16)" fill="#ffffff" stroke="#ffffff" stroke-linecap="round" stroke-linejoin="round">
    <path d="M16 27V16" stroke-width="2.2" fill="none"/>
    <path d="M16 16C16 16 16 10.5 19.5 7.5C22 5.3 25 5.3 26 6.5C27 7.8 26.5 11 24 13.5C20.8 16.7 16 16 16 16Z"/>
    <path d="M16 19C16 19 16 14 13 11.5C11 10 8.5 10.3 7.8 11.3C7.1 12.4 7.5 14.8 9.7 16.6C12.6 19 16 19 16 19Z" fill-opacity="0.78"/>
    <path d="M10.5 27H21.5" stroke-width="2" fill="none" stroke-opacity="0.55"/>
  </g>
</svg>
